# xmcd
#
# Track frame offsets: 
#        150
#        13684
#        25906
#        38836
#        53045
#        72181
#        86730
#        102635
#        116383
#        137116
#        158653
#
# Disc length: 2364 seconds
#
# Revision: 0
# Processed by: cddbd v1.5.2PL0 Copyright (c) Steve Scherf et al.
# Submitted via: ExactAudioCopy v1.3
#
DISCID=8c093a0b
DTITLE=Jonathan Parker - Long Gone
DYEAR=2014
DGENRE=Country
TTITLE0=Damned If You Do
TTITLE1=L&R
TTITLE2=Honkytonkin Man
TTITLE3=Shotgun Willie
TTITLE4=Real Love Ain't Blind
TTITLE5=Here's to the Farmers
TTITLE6=When All the Outlaws are Gone
TTITLE7=You Tell Me Your Troubles
TTITLE8=I Just Don't Like Loving You
TTITLE9=Long Gone
TTITLE10=Go On
EXTD=
EXTT0=
EXTT1=
EXTT2=
EXTT3=
EXTT4=
EXTT5=
EXTT6=
EXTT7=
EXTT8=
EXTT9=
EXTT10=
PLAYORDER=
